<svg id="visual" viewBox="0 0 900 600" width="900" height="600" xmlns="http://www.w3.org/2000/svg" xmlns:xlink="http://www.w3.org/1999/xlink" version="1.1"><g stroke-width="1" stroke-linejoin="bevel"><path d="M485 327L409 324L405 408Z" fill="#070707" stroke="#070707"></path><path d="M405 408L496 427L485 327Z" fill="#040404" stroke="#040404"></path><path d="M408 528L522 461L496 427Z" fill="#000000" stroke="#000000"></path><path d="M496 427L609 390L485 327Z" fill="#070707" stroke="#070707"></path><path d="M617 305L534 231L485 327Z" fill="#141414" stroke="#141414"></path><path d="M485 327L435 165L409 324Z" fill="#1c1c1c" stroke="#1c1c1c"></path><path d="M405 408L408 528L496 427Z" fill="#161616" stroke="#161616"></path><path d="M522 461L609 390L496 427Z" fill="#040404" stroke="#040404"></path><path d="M409 324L282 434L405 408Z" fill="#141414" stroke="#141414"></path><path d="M405 408L303 514L408 528Z" fill="#070707" stroke="#070707"></path><path d="M609 390L617 305L485 327Z" fill="#070707" stroke="#070707"></path><path d="M285 221L270 293L409 324Z" fill="#181818" stroke="#181818"></path><path d="M409 324L270 293L282 434Z" fill="#111111" stroke="#111111"></path><path d="M534 231L435 165L485 327Z" fill="#1a1a1a" stroke="#1a1a1a"></path><path d="M282 434L303 514L405 408Z" fill="#1a1a1a" stroke="#1a1a1a"></path><path d="M435 165L285 221L409 324Z" fill="#161616" stroke="#161616"></path><path d="M498 600L610 518L522 461Z" fill="#1a1a1a" stroke="#1a1a1a"></path><path d="M522 461L610 518L609 390Z" fill="#000000" stroke="#000000"></path><path d="M731 410L703 264L617 305Z" fill="#0b0b0b" stroke="#0b0b0b"></path><path d="M285 221L231 295L270 293Z" fill="#111111" stroke="#111111"></path><path d="M270 293L199 386L282 434Z" fill="#0b0b0b" stroke="#0b0b0b"></path><path d="M282 434L175 464L303 514Z" fill="#141414" stroke="#141414"></path><path d="M294 600L423 600L408 528Z" fill="#161616" stroke="#161616"></path><path d="M408 528L498 600L522 461Z" fill="#040404" stroke="#040404"></path><path d="M423 600L498 600L408 528Z" fill="#141414" stroke="#141414"></path><path d="M231 295L199 386L270 293Z" fill="#1c1c1c" stroke="#1c1c1c"></path><path d="M534 231L477 120L435 165Z" fill="#040404" stroke="#040404"></path><path d="M435 165L335 119L285 221Z" fill="#040404" stroke="#040404"></path><path d="M581 132L477 120L534 231Z" fill="#1a1a1a" stroke="#1a1a1a"></path><path d="M477 120L420 116L435 165Z" fill="#000000" stroke="#000000"></path><path d="M617 305L606 172L534 231Z" fill="#181818" stroke="#181818"></path><path d="M606 172L581 132L534 231Z" fill="#1c1c1c" stroke="#1c1c1c"></path><path d="M420 116L335 119L435 165Z" fill="#070707" stroke="#070707"></path><path d="M285 221L224 200L231 295Z" fill="#1c1c1c" stroke="#1c1c1c"></path><path d="M165 600L294 600L303 514Z" fill="#0b0b0b" stroke="#0b0b0b"></path><path d="M303 514L294 600L408 528Z" fill="#1a1a1a" stroke="#1a1a1a"></path><path d="M224 116L224 200L285 221Z" fill="#040404" stroke="#040404"></path><path d="M231 295L131 319L199 386Z" fill="#1c1c1c" stroke="#1c1c1c"></path><path d="M617 305L687 230L606 172Z" fill="#040404" stroke="#040404"></path><path d="M606 172L689 106L581 132Z" fill="#0b0b0b" stroke="#0b0b0b"></path><path d="M731 410L617 305L609 390Z" fill="#111111" stroke="#111111"></path><path d="M703 264L687 230L617 305Z" fill="#040404" stroke="#040404"></path><path d="M498 600L613 600L610 518Z" fill="#0e0e0e" stroke="#0e0e0e"></path><path d="M610 518L731 410L609 390Z" fill="#0b0b0b" stroke="#0b0b0b"></path><path d="M117 429L175 464L199 386Z" fill="#161616" stroke="#161616"></path><path d="M199 386L175 464L282 434Z" fill="#000000" stroke="#000000"></path><path d="M731 511L731 410L610 518Z" fill="#1a1a1a" stroke="#1a1a1a"></path><path d="M224 200L131 319L231 295Z" fill="#181818" stroke="#181818"></path><path d="M679 600L731 511L610 518Z" fill="#181818" stroke="#181818"></path><path d="M613 600L679 600L610 518Z" fill="#181818" stroke="#181818"></path><path d="M131 319L117 429L199 386Z" fill="#1a1a1a" stroke="#1a1a1a"></path><path d="M175 464L165 600L303 514Z" fill="#141414" stroke="#141414"></path><path d="M321 0L224 116L335 119Z" fill="#181818" stroke="#181818"></path><path d="M335 119L224 116L285 221Z" fill="#070707" stroke="#070707"></path><path d="M224 200L80 181L131 319Z" fill="#141414" stroke="#141414"></path><path d="M820 499L787 397L731 410Z" fill="#161616" stroke="#161616"></path><path d="M731 410L795 283L703 264Z" fill="#040404" stroke="#040404"></path><path d="M785 184L689 106L687 230Z" fill="#040404" stroke="#040404"></path><path d="M785 184L687 230L703 264Z" fill="#070707" stroke="#070707"></path><path d="M687 230L689 106L606 172Z" fill="#181818" stroke="#181818"></path><path d="M581 132L487 0L477 120Z" fill="#000000" stroke="#000000"></path><path d="M477 120L487 0L420 116Z" fill="#000000" stroke="#000000"></path><path d="M420 116L401 0L335 119Z" fill="#1a1a1a" stroke="#1a1a1a"></path><path d="M787 397L795 283L731 410Z" fill="#181818" stroke="#181818"></path><path d="M101 514L165 600L175 464Z" fill="#1c1c1c" stroke="#1c1c1c"></path><path d="M595 0L487 0L581 132Z" fill="#0e0e0e" stroke="#0e0e0e"></path><path d="M487 0L401 0L420 116Z" fill="#161616" stroke="#161616"></path><path d="M0 518L101 514L117 429Z" fill="#000000" stroke="#000000"></path><path d="M117 429L101 514L175 464Z" fill="#040404" stroke="#040404"></path><path d="M795 283L785 184L703 264Z" fill="#1c1c1c" stroke="#1c1c1c"></path><path d="M401 0L321 0L335 119Z" fill="#0b0b0b" stroke="#0b0b0b"></path><path d="M101 514L131 600L165 600Z" fill="#040404" stroke="#040404"></path><path d="M786 600L820 499L731 511Z" fill="#181818" stroke="#181818"></path><path d="M731 511L820 499L731 410Z" fill="#070707" stroke="#070707"></path><path d="M787 397L900 383L795 283Z" fill="#181818" stroke="#181818"></path><path d="M900 237L795 102L785 184Z" fill="#141414" stroke="#141414"></path><path d="M717 0L595 0L689 106Z" fill="#0e0e0e" stroke="#0e0e0e"></path><path d="M689 106L595 0L581 132Z" fill="#1c1c1c" stroke="#1c1c1c"></path><path d="M224 116L80 181L224 200Z" fill="#040404" stroke="#040404"></path><path d="M131 319L0 388L117 429Z" fill="#0e0e0e" stroke="#0e0e0e"></path><path d="M119 79L80 181L224 116Z" fill="#161616" stroke="#161616"></path><path d="M679 600L786 600L731 511Z" fill="#040404" stroke="#040404"></path><path d="M167 0L119 79L224 116Z" fill="#000000" stroke="#000000"></path><path d="M900 237L785 184L795 283Z" fill="#161616" stroke="#161616"></path><path d="M785 184L795 102L689 106Z" fill="#000000" stroke="#000000"></path><path d="M0 303L0 388L131 319Z" fill="#161616" stroke="#161616"></path><path d="M101 514L0 600L131 600Z" fill="#0e0e0e" stroke="#0e0e0e"></path><path d="M0 303L131 319L0 225Z" fill="#070707" stroke="#070707"></path><path d="M0 225L131 319L80 181Z" fill="#181818" stroke="#181818"></path><path d="M900 469L787 397L820 499Z" fill="#0e0e0e" stroke="#0e0e0e"></path><path d="M900 469L900 383L787 397Z" fill="#161616" stroke="#161616"></path><path d="M761 0L717 0L689 106Z" fill="#111111" stroke="#111111"></path><path d="M321 0L167 0L224 116Z" fill="#1a1a1a" stroke="#1a1a1a"></path><path d="M900 383L900 284L795 283Z" fill="#141414" stroke="#141414"></path><path d="M900 600L900 469L820 499Z" fill="#181818" stroke="#181818"></path><path d="M0 139L0 225L80 181Z" fill="#000000" stroke="#000000"></path><path d="M0 139L80 181L119 79Z" fill="#0e0e0e" stroke="#0e0e0e"></path><path d="M0 388L0 518L117 429Z" fill="#000000" stroke="#000000"></path><path d="M900 284L900 237L795 283Z" fill="#181818" stroke="#181818"></path><path d="M795 102L761 0L689 106Z" fill="#141414" stroke="#141414"></path><path d="M900 67L761 0L795 102Z" fill="#000000" stroke="#000000"></path><path d="M77 0L0 139L119 79Z" fill="#0e0e0e" stroke="#0e0e0e"></path><path d="M0 518L0 600L101 514Z" fill="#181818" stroke="#181818"></path><path d="M786 600L900 600L820 499Z" fill="#000000" stroke="#000000"></path><path d="M167 0L77 0L119 79Z" fill="#111111" stroke="#111111"></path><path d="M900 237L900 67L795 102Z" fill="#070707" stroke="#070707"></path><path d="M77 0L0 0L0 139Z" fill="#000000" stroke="#000000"></path><path d="M900 67L900 0L761 0Z" fill="#040404" stroke="#040404"></path></g></svg>